# xmcd
#
# Track frame offsets:
#	150
#	12007
#	27825
#	51097
#	67695
#	85067
#	100007
#	112290
#	125870
#	137685
#
# Disc length: 2036
#
# Revision: 3
# Processed by: cddbd v1.5.1PL0 Copyright (c) Steve Scherf et al.
# Submitted via: CDValet v3.31 - Copyright (c) 1997 Greg Leichner
# Normalized: r1:TDELIM( - ),TSWAP
#
DISCID=7d07f20a
DTITLE=Bobby Womack - Cornelius Bros. and Sister Rose - Back To Back Hits
DYEAR=1900
DGENRE=
TTITLE0=Bobby Womack - Lookin'  For A Love
TTITLE1=Bobby Womack - Woman's Gotta Have It
TTITLE2=Bobby Womack - That's The Way I Feel About Cha
TTITLE3=Bobby Womack - You're Welcome, Stop On By
TTITLE4=Bobby Womack - Check It Out
TTITLE5=Cornelius Bros. and Sister Rose - Too Late To Turn Back Now
TTITLE6=Cornelius Bros. and Sister Rose - Treat Her Like A Lady
TTITLE7=Cornelius Bros. and Sister Rose - Don't Ever Be Lonely
TTITLE8=Cornelius Bros. and Sister Rose - I'm Never Gonna Be Alone Anymore
TTITLE9=Cornelius Bros. and Sister Rose - Since I Found My Baby
EXTD=S21-18970\nCEMA Special Markets 1996, a division of Capitol Records, Inc.\n
EXTT0=
EXTT1=
EXTT2=
EXTT3=
EXTT4=
EXTT5=
EXTT6=
EXTT7=
EXTT8=
EXTT9=
PLAYORDER=
